<svg xmlns="http://www.w3.org/2000/svg" width="112" height="56" viewBox="0 0 112 56">
    <g fill="none" fill-rule="evenodd">
        <path d="M0 0h112v56H0z"/>
        <path fill="#FFF" fill-rule="nonzero" stroke="#FFF" stroke-width=".2" d="M35.486 22.808l-.454-.5s.272-.227.726-.59l.41.5c-.41.363-.682.59-.682.59zM57.2 24.125c-.363 0-.59-.363-1-1.135a3.995 3.995 0 0 1-.272-.455l.545-.318c.091.182.182.318.273.455.181.363.409.772.545.817l.09-.09s.41.272.364.318c0-.046-.182.408-.545.408zm1.544-1.59l-.5-.408.228-.273c.272-.318.545-.681.818-1.045l.5.41c-.319.362-.591.726-.818 1.044l-.228.272zm-21.123-1.362l-.364-.545c.5-.364 1-.682 1.545-1l.318.545c-.5.318-1 .636-1.5 1zm17.308-.137c-.364-.5-.773-.908-1.182-1.317l.455-.454c.454.409.863.863 1.226 1.408l-.5.363zm5.95-1.272l-.5-.408c.41-.5.819-.954 1.182-1.363l.5.454c-.364.409-.773.818-1.181 1.317zm-20.215-.454l-.317-.59a27.635 27.635 0 0 1 1.68-.773l.227.59c-.5.228-1.044.455-1.59.773zm35.524-.409c-.545 0-.908-.5-1.362-1.135l.545-.364c.227.318.59.863.817.863l.091-.09.455.408a.578.578 0 0 1-.546.318zm-23.803-.227c-.5-.318-1-.545-1.59-.727l.272-.59c.59.227 1.181.5 1.681.817l-.363.5zm-8.45-.727l-.181-.636c.59-.181 1.226-.318 1.817-.408l.09.635c-.59.091-1.135.228-1.726.41zm5.224-.409a10.63 10.63 0 0 0-1.726-.136v-.636c.636 0 1.272.046 1.863.137l-.137.635zm28.71-.227l-.545-.363c.318-.454.682-1 1-1.5l.545.364c-.318.5-.682 1.045-1 1.5zm-14.536-.181l-.455-.455c.455-.454.909-.863 1.363-1.226l.409.5c-.409.363-.863.726-1.317 1.18zm10.448-.773a6.143 6.143 0 0 0-1.272-1.18l.363-.546c.5.364.909.772 1.363 1.272l-.454.454zm-7.677-1.408l-.318-.545c.59-.363 1.18-.59 1.726-.772l.182.636c-.546.136-1.045.363-1.59.681zm4.906-.59c-.5-.182-1.09-.273-1.681-.318l.045-.636c.636.045 1.272.136 1.863.363l-.227.59zm8.858-.091l-.545-.364c.318-.5.636-1 1-1.499l.544.364c-.363.5-.68.999-.999 1.499zm11.266-.818a77.419 77.419 0 0 0-.273-1.772l.636-.136c.137.545.228 1.181.318 1.817l-.681.091zm-9.267-2.18l-.5-.364c.409-.545.772-1 1.136-1.454l.5.41c-.364.454-.727.908-1.136 1.408zm8.54-1.272a13.875 13.875 0 0 0-.681-1.59l.545-.318c.272.5.545 1.044.772 1.726l-.636.182zm-6.223-1.409l-.455-.454c.5-.454 1-.863 1.454-1.136l.363.546c-.408.227-.863.59-1.362 1.044zm4.406-1.408a2.14 2.14 0 0 0-1.499-.272l-.09-.636c.68-.091 1.362 0 1.952.363l-.363.545zM91.361 16.176s0-.364-.045-.909l.636-.045c.045.59.045.954.045.954h-.636z"/>
    </g>
</svg>
